# xmcd CD database file
#
# Track frame offsets:
#	150
#	12620
#	29782
#	37792
#	50330
#	63200
#	75485
#	86977
#	98540
#	116267
#	129547
#	134270
#	143035
#	163850
#	174712
#	194202
#	208160
#	225672
#	230830
#
# Disc length: 3245 seconds
#
# Revision: 6
# Processed by: cddbd v1.5.1PL0 Copyright (c) Steve Scherf et al.
# Submitted via: CDex 1.51
#
DISCID=0e0cab13
DTITLE=Tom Waits - Rain Dogs
DYEAR=1985
DGENRE=Blues
TTITLE0=Singapore
TTITLE1=Clap Hands
TTITLE2=Cemetery Polka
TTITLE3=Jockey Full Of Bourbon
TTITLE4=Tango Till They're Sore
TTITLE5=Big Black Mariah
TTITLE6=Diamonds and Gold
TTITLE7=Hang Down Your Head
TTITLE8=Time
TTITLE9=Rain Dogs
TTITLE10=Midtown (Instrumental)
TTITLE11=9th and Hennepin
TTITLE12=Gun Street Girl
TTITLE13=Union Square
TTITLE14=Blind Love
TTITLE15=Walking Spanish
TTITLE16=Downtown Train
TTITLE17=Bridge Of Rain Dog (Instrumental)
TTITLE18=Anywhere I Lay My Head
EXTD=YEAR: 1985
EXTT0=
EXTT1=
EXTT2=
EXTT3=
EXTT4=
EXTT5=
EXTT6=
EXTT7=
EXTT8=
EXTT9=
EXTT10=
EXTT11=
EXTT12=
EXTT13=
EXTT14=
EXTT15=
EXTT16=
EXTT17=
EXTT18=
PLAYORDER=
